<svg width="400" height="302" viewBox="0 0 400 302" fill="none" xmlns="http://www.w3.org/2000/svg">
<g clip-path="url(#clip0_34_172)">
<path opacity="0.18" d="M194.032 14.9797C181.612 18.6894 169.78 24.1431 158.892 31.1776C147.643 38.5177 140.074 48.8519 129.781 57.0652C109.664 73.0137 84.5454 83.7222 60.4668 92.0187C50.8915 95.3248 41.0875 98.5062 32.7806 104.308C20.0343 113.207 11.9873 127.482 6.94497 142.182C-4.15864 174.443 -2.24565 211.684 14.8152 241.283C31.4498 270.04 64.0745 292.04 97.9259 291.187C140.729 290.147 183.906 293.266 226.844 293.266C256.755 293.973 286.781 294.67 316.515 291.322C328.939 289.919 341.467 287.756 352.737 282.308C373.873 272.068 391.839 254.061 397.786 230.918C400.148 221.516 400.602 211.736 399.122 202.156C397.642 192.576 394.257 183.39 389.167 175.14C382.866 165.034 374.05 156.509 369.06 145.697C362.354 131.141 363.373 114.423 361.408 98.5374C358.744 77.3801 350.65 57.2724 337.911 40.1707C330.228 29.93 320.611 20.6355 308.77 15.5723C300.608 12.0894 291.709 10.7379 282.892 9.70859C254.468 6.42326 225.264 6.35048 197.64 13.94C196.455 14.2727 195.249 14.6158 194.032 14.9797Z" fill="#68E1FD"/>
<path d="M249.904 233.153H180.236V269.687H249.904V233.153Z" fill="#68E1FD"/>
<path d="M249.904 233.153H180.236V269.687H249.904V233.153Z" fill="url(#paint0_linear_34_172)"/>
<path d="M330.083 110.036V213.753C330.089 216.624 329.53 219.469 328.436 222.124C327.341 224.779 325.734 227.192 323.706 229.225C321.678 231.258 319.269 232.87 316.617 233.971C313.965 235.071 311.121 235.638 308.25 235.638H115.163C112.292 235.638 109.449 235.071 106.796 233.971C104.144 232.87 101.735 231.258 99.7068 229.225C97.6788 227.192 96.0716 224.779 94.9775 222.124C93.8834 219.469 93.3237 216.624 93.3305 213.753V110.036C93.3305 104.246 95.6308 98.6924 99.7252 94.5979C103.82 90.5034 109.373 88.2032 115.163 88.2032H308.208C311.079 88.1977 313.922 88.7584 316.576 89.8531C319.23 90.9479 321.641 92.5552 323.673 94.5832C325.705 96.6111 327.317 99.0198 328.417 101.671C329.516 104.323 330.083 107.165 330.083 110.036Z" fill="white"/>
<path d="M330.083 110.036V213.753C330.089 216.624 329.53 219.469 328.436 222.124C327.341 224.779 325.734 227.192 323.706 229.225C321.678 231.258 319.269 232.87 316.617 233.971C313.965 235.071 311.121 235.638 308.25 235.638H115.163C112.292 235.638 109.449 235.071 106.796 233.971C104.144 232.87 101.735 231.258 99.7068 229.225C97.6788 227.192 96.0716 224.779 94.9775 222.124C93.8834 219.469 93.3237 216.624 93.3305 213.753V110.036C93.3305 104.246 95.6308 98.6924 99.7252 94.5979C103.82 90.5034 109.373 88.2032 115.163 88.2032H308.208C311.079 88.1977 313.922 88.7584 316.576 89.8531C319.23 90.9479 321.641 92.5552 323.673 94.5832C325.705 96.6111 327.317 99.0198 328.417 101.671C329.516 104.323 330.083 107.165 330.083 110.036Z" fill="url(#paint1_linear_34_172)"/>
<path d="M330.083 206.475V213.753C330.089 216.624 329.53 219.469 328.436 222.124C327.341 224.779 325.734 227.192 323.706 229.225C321.678 231.258 319.269 232.87 316.617 233.971C313.965 235.071 311.121 235.638 308.25 235.638H115.163C112.292 235.638 109.449 235.071 106.796 233.971C104.144 232.87 101.735 231.258 99.7068 229.225C97.6788 227.192 96.0716 224.779 94.9775 222.124C93.8834 219.469 93.3237 216.624 93.3305 213.753V206.475H330.083Z" fill="#68E1FD"/>
<path d="M320.216 153.13C320.216 153.13 313.718 174.443 315.673 179.07C317.628 183.696 338.546 203.751 338.546 203.751L343.941 199.27L328.149 176.585C328.149 176.585 334.158 152.974 329.116 146.622C324.073 140.27 320.216 153.13 320.216 153.13Z" fill="#282328"/>
<path d="M329.604 142.962C333.369 145.785 336.347 149.525 338.254 153.827C341.373 160.907 336.456 177.635 336.456 177.635L357.447 188.874L354.775 196.151C354.775 196.151 329.365 186.794 326.496 183.353C323.626 179.912 320.071 156.031 320.071 156.031L329.604 142.962Z" fill="#473F47"/>
<path d="M297.905 119.393L289.442 116.108C288.773 115.818 288.076 115.595 287.363 115.442C286.625 115.318 285.876 115.349 285.138 115.286C283.303 114.953 281.503 114.449 279.763 113.779C279.026 113.6 278.324 113.302 277.684 112.895C277.051 112.489 276.598 111.857 276.415 111.128C276.339 110.474 276.488 109.814 276.837 109.256C277.187 108.698 277.717 108.276 278.339 108.061C279.608 107.676 280.977 107.791 282.165 108.383C283.786 109.111 285.408 109.589 287.02 110.338C288.974 111.242 290.95 112.115 292.936 112.978C298.399 115.391 304.375 116.409 310.329 115.941C311.868 116.711 313.5 120.724 313.864 122.408C312.949 122.637 302.157 121.057 297.905 119.393Z" fill="#FFBBAB"/>
<path d="M138.701 122.626L147.778 122.782C148.524 122.766 149.27 122.829 150.003 122.97C150.73 123.136 151.406 123.448 152.082 123.666C153.175 123.995 154.322 124.103 155.457 123.985C156.592 123.867 157.692 123.526 158.694 122.98C160.212 122.138 161.501 120.817 163.186 120.35C163.527 120.303 163.85 120.167 164.121 119.954C164.28 119.757 164.366 119.511 164.366 119.258C164.366 119.005 164.28 118.759 164.121 118.561C163.801 118.164 163.365 117.877 162.874 117.74C161.088 117.245 159.197 117.289 157.436 117.865C156.328 118.12 155.195 118.253 154.057 118.26C151.261 118.426 148.464 118.509 145.657 118.572C139.72 118.728 133.836 117.41 128.534 114.735C126.818 114.871 123.782 117.969 122.805 119.383C123.543 119.934 134.117 122.543 138.701 122.626Z" fill="#FFBBAB"/>
<path d="M128.346 113.373C128.471 113.453 128.577 113.558 128.658 113.682C128.738 113.805 128.792 113.945 128.814 114.091C128.77 114.362 128.621 114.605 128.398 114.767L124.812 118.145C124.303 118.698 123.673 119.125 122.971 119.393C122.203 119.548 121.407 119.498 120.663 119.248C117.079 118.337 113.636 116.938 110.433 115.089C109.39 114.533 108.442 113.813 107.626 112.958C106.803 112.092 106.352 110.939 106.368 109.745C106.428 109.099 106.634 108.474 106.97 107.919C107.307 107.365 107.766 106.894 108.312 106.543C110.776 104.879 113.251 105.368 115.839 106.304C118.723 107.34 121.484 108.689 124.073 110.327C125.559 111.254 126.986 112.272 128.346 113.373Z" fill="#68E1FD"/>
<path d="M304.538 116.025V221.883C304.535 223.44 303.916 224.933 302.815 226.034C301.714 227.135 300.221 227.754 298.664 227.757H140.812C139.255 227.754 137.762 227.135 136.661 226.034C135.56 224.933 134.941 223.44 134.938 221.883V116.025C134.937 115.253 135.088 114.488 135.382 113.775C135.677 113.062 136.11 112.414 136.655 111.868C137.201 111.322 137.849 110.89 138.562 110.595C139.276 110.3 140.04 110.149 140.812 110.15H298.664C299.436 110.149 300.2 110.3 300.914 110.595C301.627 110.89 302.275 111.322 302.821 111.868C303.366 112.414 303.799 113.062 304.094 113.775C304.389 114.488 304.54 115.253 304.538 116.025Z" fill="white"/>
<path d="M304.538 116.025V117.969H134.938V116.025C134.937 115.253 135.088 114.488 135.382 113.775C135.677 113.062 136.11 112.414 136.655 111.868C137.201 111.322 137.849 110.89 138.562 110.595C139.276 110.3 140.04 110.149 140.812 110.15H298.664C299.436 110.149 300.2 110.3 300.914 110.595C301.627 110.89 302.275 111.322 302.821 111.868C303.366 112.414 303.799 113.062 304.094 113.775C304.389 114.488 304.54 115.253 304.538 116.025Z" fill="#68E1FD"/>
<path d="M96.595 141.829C96.595 141.829 93.5384 149.273 90.066 149.491C86.5935 149.71 58.1171 147.142 58.1171 147.142L57.2958 143.742C57.2958 143.742 75.2716 140.841 79.1287 141.819C81.1128 142.342 83.1219 142.765 85.1483 143.087L87.7267 141.174L96.595 141.829Z" fill="#EF9786"/>
<path d="M104.871 142.068C105.409 142.851 105.697 143.779 105.697 144.73C105.697 145.68 105.409 146.608 104.871 147.391C102.989 150.209 69.9486 166.49 69.9486 166.49L68.3787 162.893C68.3787 162.893 85.7306 147.079 89.6606 146.767C90.1481 146.784 90.633 146.69 91.0795 146.494C91.5259 146.297 91.9226 146.003 92.24 145.633C92.5574 145.263 92.7875 144.826 92.9133 144.354C93.0391 143.883 93.0574 143.39 92.9667 142.91L104.871 142.068Z" fill="#FFBBAB"/>
<path d="M115.985 125.985C115.985 125.985 116.266 129.415 120.84 131.058C125.415 132.701 144.804 131.058 144.804 131.058C146.811 131.058 148.797 132.638 150.762 132.191C152.727 131.744 154.421 129.675 153.725 127.794C153.52 127.324 153.217 126.903 152.837 126.559C152.457 126.214 152.008 125.955 151.521 125.797C150.538 125.487 149.515 125.326 148.485 125.319C146.703 125.091 144.893 125.272 143.193 125.849C142.52 126.235 141.826 126.582 141.114 126.889C140.277 127.093 139.414 127.164 138.556 127.097L128.024 126.775C125.997 126.712 123.585 126.432 122.649 124.633C122.327 124.02 122.181 123.24 121.609 122.886C121.214 122.699 120.766 122.655 120.341 122.762C118.335 123.073 117.43 124.664 115.985 125.985Z" fill="#FFBBAB"/>
<path d="M114.509 125.361C114.671 125.562 114.872 125.729 115.101 125.849C115.38 125.967 115.684 126.014 115.985 125.985C118.013 125.761 119.97 125.105 121.724 124.061C121.776 124.043 121.824 124.014 121.865 123.976C121.907 123.939 121.94 123.893 121.963 123.843C121.979 123.805 121.987 123.764 121.987 123.723C121.987 123.682 121.979 123.642 121.963 123.604L119.884 116.659C119.706 115.905 119.373 115.197 118.906 114.579C118.55 114.201 118.112 113.911 117.625 113.731C117.138 113.55 116.616 113.485 116.099 113.54C115.074 113.676 114.098 114.066 113.261 114.673C112.374 115.225 111.655 116.009 111.182 116.939C110.485 118.457 111.182 119.663 111.764 121.046C112.417 122.635 113.346 124.096 114.509 125.361Z" fill="#68E1FD"/>
<path d="M129.667 103.278C129.637 103.624 129.637 103.972 129.667 104.318C129.735 104.642 129.68 104.979 129.511 105.264C129.282 105.524 128.887 105.524 128.565 105.649C127.525 106.023 127.307 107.52 126.309 107.988C125.981 108.127 125.625 108.191 125.269 108.175C124.727 108.226 124.18 108.154 123.669 107.965C123.158 107.776 122.695 107.475 122.316 107.083C122.129 106.855 121.88 106.553 121.62 106.688C121.36 106.824 121.453 106.876 121.391 106.99C120.663 108.581 118.553 109.995 116.983 108.664C116.066 107.715 115.448 106.519 115.205 105.222C114.789 103.777 115.496 102.259 116.141 100.97C116.829 99.5482 117.621 98.179 118.511 96.874C119.915 94.8882 121.838 93.048 124.24 92.7153C125.231 92.6178 126.232 92.7553 127.16 93.1165C128.089 93.4778 128.919 94.0527 129.584 94.7946C130.252 95.5263 130.702 96.4302 130.883 97.4042C131.031 97.9102 131.07 98.4416 130.998 98.9637C130.863 99.6054 130.675 100.235 130.436 100.845C130.164 101.52 129.949 102.215 129.792 102.925C129.698 103.029 129.677 103.154 129.667 103.278Z" fill="#FFBBAB"/>
<path d="M112.939 120.246C112.559 120.456 112.163 120.633 111.753 120.776C109.674 121.545 107.158 121.722 105.588 123.209C104.605 124.348 104.043 125.79 103.998 127.294C103.41 132.511 104.158 137.791 106.17 142.64C105.029 142.889 103.872 143.066 102.708 143.17C98.5145 143.481 94.2982 143.261 90.1596 142.515C84.8573 141.694 79.5862 140.529 74.2216 140.301C75.8954 138.793 76.7168 136.589 77.7564 134.593C81.572 127.211 88.6209 122.169 94.7133 116.513C97.5204 113.904 100.172 111.117 103.207 108.768C104.712 107.508 106.44 106.542 108.302 105.919C113.396 104.422 116.879 107.936 117.534 112.75C118.002 116.378 115.881 118.541 112.939 120.246Z" fill="#68E1FD"/>
<path d="M131.351 97.1235C131.164 97.6329 130.384 99.4419 129.615 98.4958C129.552 98.4231 129.511 98.3295 129.417 98.2983C129.324 98.2671 129.189 98.2983 129.085 98.4231C127.948 99.3121 126.543 99.7864 125.1 99.7675C123.657 99.7486 122.264 99.2376 121.152 98.3191L120.892 98.683L118.906 101.438C119.135 100.887 118.303 100.398 117.773 100.669C117.528 100.839 117.322 101.059 117.169 101.316C117.017 101.572 116.921 101.859 116.889 102.155C116.693 103.198 116.383 104.216 115.964 105.191C115.751 105.681 115.435 106.12 115.039 106.478C114.643 106.837 114.175 107.107 113.666 107.271C112.627 107.531 111.514 107.156 110.547 107.458C109.019 107.894 108.281 109.537 107.366 110.847C105.162 113.966 101.128 115.411 97.3436 115.39C96.4677 115.405 95.5938 115.304 94.7445 115.089C93.7311 114.81 92.7936 114.306 92.0016 113.615C91.2097 112.924 90.5836 112.063 90.17 111.097C90.0512 110.802 89.9539 110.5 89.8789 110.192C89.5886 109.014 89.6485 107.776 90.0511 106.631C90.4536 105.486 91.1814 104.484 92.1453 103.746C93.243 103.184 94.287 102.523 95.2643 101.771C95.9943 100.771 96.6312 99.7057 97.1669 98.5894C97.8554 97.687 98.7181 96.932 99.704 96.3695C100.69 95.8069 101.779 95.4481 102.906 95.3145C105.157 95.0666 107.42 94.9382 109.684 94.9298C110.936 94.9368 112.162 94.5752 113.209 93.8901C114.249 93.0896 114.82 91.7484 115.818 90.8543C116.7 90.1517 117.732 89.6609 118.833 89.4196C121.724 88.6398 124.916 88.3799 127.619 89.6587C128.568 90.1007 129.408 90.7491 130.075 91.5567C130.742 92.3643 131.221 93.3107 131.476 94.3268C131.708 95.2512 131.665 96.2235 131.351 97.1235Z" fill="#FC682D"/>
<path d="M67.5469 161.967C66.3536 162.153 65.2005 162.539 64.1368 163.111C63.6503 163.296 63.2178 163.6 62.8788 163.995C62.5611 164.52 62.4056 165.128 62.4317 165.741C62.324 169.096 63.0907 172.421 64.6566 175.389C64.7416 175.588 64.8736 175.763 65.0413 175.899C65.1708 175.978 65.3146 176.03 65.4645 176.053C65.6143 176.076 65.7673 176.07 65.9146 176.034C66.4448 175.927 66.9447 175.704 67.378 175.38C67.8114 175.057 68.1673 174.641 68.4202 174.163C68.927 173.2 69.1979 172.131 69.2103 171.044C69.1972 170.393 69.2635 169.744 69.4079 169.11C69.7094 168.132 70.4475 167.374 70.8738 166.427C71.9654 163.787 70.25 161.645 67.5469 161.967Z" fill="#68E1FD"/>
<path d="M59.4376 142.817C58.3064 142.397 57.1093 142.182 55.9027 142.182C55.3839 142.112 54.8557 142.169 54.364 142.349C53.834 142.659 53.4073 143.118 53.1372 143.669C51.4347 146.558 50.5138 149.84 50.4653 153.193C50.4434 153.412 50.4756 153.633 50.5588 153.837C50.7132 154.098 50.9631 154.288 51.2554 154.367C51.7751 154.531 52.3246 154.576 52.8641 154.501C53.4036 154.425 53.9195 154.23 54.3744 153.931C55.2697 153.324 56.0103 152.515 56.5369 151.571C56.8399 150.995 57.2098 150.458 57.6389 149.97C58.3771 149.252 59.4168 148.93 60.2173 148.316C62.4214 146.57 61.9951 143.877 59.4376 142.817Z" fill="#68E1FD"/>
<path d="M329.188 123.884C328.527 124.882 327.507 125.586 326.34 125.849C325.182 126.099 323.993 126.162 322.815 126.037C322.337 126.037 321.869 125.964 321.391 125.912C319.374 125.721 317.376 125.374 315.413 124.872C314.259 124.571 313.126 124.217 312.003 123.832C311.248 123.623 310.56 123.222 310.007 122.668C309.568 122.051 309.283 121.338 309.175 120.589C309.081 120.183 308.998 119.788 308.905 119.383L308.094 115.775C308.028 115.646 307.999 115.5 308.011 115.356C308.023 115.211 308.075 115.072 308.161 114.956C308.248 114.839 308.365 114.749 308.5 114.695C308.635 114.641 308.782 114.627 308.925 114.652C312.503 114.317 316.108 114.436 319.655 115.006C320.871 115.203 322.077 115.453 323.262 115.754C325.924 116.44 328.253 117.418 329.365 120.173C329.618 120.765 329.733 121.406 329.703 122.049C329.672 122.692 329.496 123.319 329.188 123.884Z" fill="#68E1FD"/>
<path d="M339.928 153.972C339.734 154.34 339.456 154.657 339.117 154.898C336.154 157.289 332.11 158.017 328.315 157.632C326.553 157.453 324.812 157.105 323.117 156.592C321.152 156.031 319.229 155.324 317.316 154.617C317.234 152.626 317.509 150.637 318.127 148.743C319 144.938 319.478 140.425 318.397 136.631L318.303 136.34C317.69 134.364 316.577 132.566 315.974 130.59C315.426 128.726 315.214 126.779 315.351 124.841C315.43 123.429 315.682 122.033 316.099 120.682C316.504 119.336 317.092 118.053 317.846 116.867C318.274 116.104 318.872 115.45 319.592 114.954H319.665C320.946 114.407 322.374 114.304 323.72 114.663C326.995 115.162 330.28 115.837 332.349 118.645C334.418 121.452 335.011 124.009 335.718 127.513C337.371 135.83 339.575 144.075 340.063 152.579C340.125 153.048 340.078 153.524 339.928 153.972Z" fill="#68E1FD"/>
<path d="M329.053 138.055C328.552 138.406 328.107 138.83 327.733 139.313C327.503 139.775 327.379 140.283 327.369 140.8C327.019 144.696 327.064 148.619 327.504 152.506C327.65 153.744 327.733 155.241 326.745 156.01C326.126 156.402 325.397 156.585 324.666 156.53C324.146 156.53 323.626 156.53 323.117 156.53C321.152 155.968 319.228 155.261 317.316 154.554C317.234 152.564 317.508 150.574 318.126 148.68C319 144.875 319.478 140.363 318.397 136.568L318.303 136.277C317.69 134.302 316.577 132.503 315.974 130.528C315.426 128.664 315.214 126.717 315.351 124.779C314.197 124.477 313.063 124.124 311.94 123.739C311.186 123.53 310.498 123.129 309.944 122.574C309.506 121.957 309.221 121.244 309.113 120.495C309.019 120.09 308.936 119.695 308.842 119.289L309.029 118.78C311.161 119.019 313.255 119.514 315.267 120.256C317.26 121.068 318.935 122.506 320.039 124.352L321.142 123.801C321.204 124.487 321.256 125.174 321.329 125.881C321.401 126.588 321.453 127.378 321.526 128.116C321.527 128.477 321.612 128.833 321.776 129.156C322.009 129.469 322.316 129.719 322.67 129.883C324.157 130.725 325.789 131.599 327.483 131.183C329.178 130.767 329.729 129.467 330.602 128.313C330.847 129.574 330.973 130.855 330.977 132.139C331.112 134.323 330.675 136.672 329.053 138.055Z" fill="url(#paint2_linear_34_172)"/>
<path d="M328.409 131.349C328.429 131.572 328.402 131.797 328.328 132.009C328.255 132.22 328.137 132.414 327.982 132.576L323.491 138.055C323.251 138.384 322.955 138.669 322.618 138.897C322.231 139.085 321.81 139.191 321.381 139.209C318.168 139.448 315.039 138.169 312.117 136.839C309.79 135.602 307.354 134.583 304.84 133.792C303.083 133.325 301.201 133.231 299.381 132.857C297.396 132.618 295.223 133.896 293.341 133.273C291.459 132.649 290.004 130.33 290.918 128.552C291.176 128.107 291.527 127.722 291.947 127.425C292.367 127.127 292.846 126.923 293.351 126.827C294.379 126.633 295.431 126.594 296.47 126.712C298.269 126.702 300.046 127.1 301.669 127.877C302.808 128.565 304.026 129.113 305.297 129.509C306.827 129.986 308.386 130.361 309.965 130.632C313.152 131.072 316.303 131.739 319.395 132.628C319.47 132.663 319.551 132.681 319.634 132.681C319.717 132.681 319.798 132.663 319.873 132.628C320.004 132.524 320.093 132.376 320.123 132.212C320.611 130.372 322.42 126.754 324.801 127.492C325.82 127.861 326.694 128.546 327.296 129.447C327.81 129.986 328.19 130.637 328.409 131.349Z" fill="#FFBBAB"/>
<path d="M330.155 130.902C329.957 131.067 329.732 131.197 329.49 131.287C329.196 131.36 328.889 131.36 328.596 131.287C326.607 130.826 324.741 129.939 323.127 128.688C323.034 128.625 322.93 128.552 322.909 128.449C322.905 128.366 322.923 128.283 322.961 128.209L325.81 121.566C326.215 120.63 326.673 119.726 327.13 118.821C327.317 118.356 327.622 117.948 328.014 117.636C328.42 117.424 328.876 117.323 329.334 117.345C329.748 117.326 330.163 117.375 330.561 117.49C331.265 117.818 331.861 118.342 332.276 118.998C332.678 119.458 333.001 119.982 333.233 120.547C333.401 121.063 333.471 121.606 333.441 122.148C333.359 123.903 332.939 125.626 332.204 127.222C331.756 128.272 331.153 130.05 330.155 130.902Z" fill="#68E1FD"/>
<path d="M314.072 101.313C313.521 102.665 313.282 104.141 312.72 105.472C312.574 105.777 312.462 106.098 312.388 106.428C312.355 106.596 312.36 106.768 312.401 106.933C312.442 107.099 312.519 107.253 312.627 107.385C312.959 107.718 313.552 107.728 313.822 108.113C313.94 108.304 314.008 108.522 314.02 108.747L314.29 110.66C314.303 110.896 314.367 111.127 314.477 111.336C314.643 111.551 314.861 111.719 315.112 111.824C316.291 112.408 317.591 112.707 318.906 112.698C319.194 113.395 319.227 114.172 319 114.891C318.913 115.521 318.931 116.16 319.052 116.784C319.062 116.875 319.098 116.961 319.156 117.033C319.237 117.093 319.336 117.122 319.437 117.116C319.91 117.112 320.38 117.035 320.83 116.887L324.271 115.941C324.58 115.899 324.878 115.793 325.144 115.63C325.411 115.467 325.641 115.251 325.82 114.995C325.953 114.632 326.023 114.249 326.028 113.862C326.187 113.152 326.406 112.456 326.683 111.783C326.969 110.705 327.095 109.591 327.057 108.477C327.104 106.988 327.052 105.498 326.901 104.016C326.792 102.251 326.085 100.575 324.895 99.2652C323.847 98.3303 322.513 97.7802 321.11 97.7057C319.588 97.536 318.048 97.7765 316.65 98.4023C315.458 99.0168 314.538 100.055 314.072 101.313Z" fill="#FFBBAB"/>
<path d="M312.668 95.4288C312.422 96.2452 312.459 97.1207 312.772 97.9136C313.144 98.8895 313.801 99.7309 314.658 100.328C315.515 100.925 316.531 101.25 317.576 101.261C317.772 101.245 317.969 101.267 318.158 101.324C318.299 101.385 318.429 101.469 318.542 101.573L320.705 103.351C321.184 103.696 321.596 104.126 321.921 104.619C322.2 105.175 322.373 105.778 322.431 106.397C322.535 105.97 322.734 105.572 323.013 105.233C323.163 105.074 323.359 104.966 323.574 104.925C323.788 104.884 324.011 104.912 324.209 105.004C324.435 105.183 324.59 105.438 324.645 105.721C324.769 106.262 324.736 106.826 324.552 107.348C324.368 107.871 324.04 108.33 323.606 108.674C324.281 108.83 324.573 109.61 324.749 110.275L325.519 113.186C325.688 113.16 325.847 113.086 325.978 112.974C326.108 112.862 326.205 112.716 326.257 112.552C326.257 112.708 326.475 112.781 326.61 112.698C326.736 112.606 326.828 112.474 326.87 112.323C327.577 110.442 328.232 108.529 328.835 106.616C329.519 104.804 329.871 102.885 329.875 100.949C329.873 100.447 329.763 99.9502 329.552 99.4939C329.445 99.2682 329.285 99.0714 329.086 98.9195C328.887 98.7677 328.655 98.6653 328.409 98.6206C328.318 98.6135 328.23 98.5888 328.149 98.5478C328.105 98.5043 328.071 98.4525 328.047 98.3953C328.024 98.3381 328.013 98.2768 328.014 98.2151C327.97 97.5362 327.841 96.8655 327.629 96.219C327.433 95.7082 327.134 95.2429 326.752 94.8518C326.369 94.4607 325.91 94.1519 325.404 93.9445C324.898 93.7371 324.354 93.6354 323.807 93.6457C323.26 93.6561 322.721 93.7781 322.223 94.0045C322.075 94.1004 321.896 94.1341 321.724 94.0981C321.617 94.0484 321.527 93.9689 321.464 93.8693C320.869 93.2062 320.066 92.7661 319.187 92.6217C318.318 92.4761 317.435 92.4342 316.557 92.497C316.106 92.4804 315.655 92.5437 315.226 92.6841C314.602 92.9232 314.467 93.5262 313.978 93.8693C313.374 94.2215 312.911 94.7728 312.668 95.4288Z" fill="#FC682D"/>
<path d="M362.915 191.234C363.248 191.639 363.092 192.273 362.915 192.752L359.464 203.284C359.364 203.703 359.176 204.096 358.912 204.438C358.495 204.794 357.956 204.976 357.408 204.945C356.86 204.914 356.345 204.673 355.97 204.271C355.251 203.429 354.814 202.381 354.723 201.277C354.286 198.653 354.254 195.978 354.629 193.344C354.795 192.19 355.263 189.394 356.708 189.051C358.154 188.707 361.584 190.766 362.915 191.234Z" fill="#473F47"/>
<path d="M347.31 204.905C347.31 205.425 346.884 205.841 346.457 206.153L337.599 212.817C337.274 213.098 336.896 213.31 336.487 213.441C336.215 213.474 335.94 213.454 335.676 213.38C335.412 213.307 335.165 213.182 334.95 213.013C334.734 212.844 334.554 212.634 334.42 212.395C334.286 212.156 334.201 211.894 334.169 211.622C334.073 210.536 334.313 209.448 334.855 208.503C336 206.1 337.508 203.887 339.325 201.942C340.126 201.09 342.112 199.062 343.484 199.593C344.856 200.123 346.489 203.751 347.31 204.905Z" fill="#473F47"/>
<path d="M140.677 115.9C141.871 115.9 142.839 114.932 142.839 113.737C142.839 112.543 141.871 111.575 140.677 111.575C139.482 111.575 138.514 112.543 138.514 113.737C138.514 114.932 139.482 115.9 140.677 115.9Z" fill="white"/>
<path d="M146.572 115.9C147.766 115.9 148.734 114.932 148.734 113.737C148.734 112.543 147.766 111.575 146.572 111.575C145.377 111.575 144.409 112.543 144.409 113.737C144.409 114.932 145.377 115.9 146.572 115.9Z" fill="white"/>
<path d="M152.456 115.9C153.651 115.9 154.619 114.932 154.619 113.737C154.619 112.543 153.651 111.575 152.456 111.575C151.262 111.575 150.294 112.543 150.294 113.737C150.294 114.932 151.262 115.9 152.456 115.9Z" fill="white"/>
<path d="M261.61 266.183H166.471V273.211H261.61V266.183Z" fill="#68E1FD"/>
<path d="M106.139 142.64C104.997 142.889 103.841 143.066 102.677 143.17L95.1292 142.91C92.2701 142.806 89.2759 142.661 86.8119 141.195C89.9309 140.02 91.8439 136.807 92.79 133.605C93.736 130.403 93.9856 127.003 95.098 123.853C95.3825 122.784 96.0064 121.835 96.8758 121.15C97.666 120.729 98.5316 120.467 99.423 120.381C103.018 119.641 106.326 117.888 108.957 115.328C108.676 115.598 110.828 119.081 111.036 119.487C111.244 119.892 111.545 120.36 111.733 120.755C109.653 121.524 107.137 121.701 105.567 123.188C104.584 124.327 104.023 125.77 103.977 127.274C103.382 132.496 104.127 137.784 106.139 142.64Z" fill="url(#paint3_linear_34_172)"/>
<path d="M118.48 110.691C118.599 110.631 118.731 110.599 118.865 110.599C118.998 110.599 119.13 110.631 119.249 110.691C121.958 111.805 124.544 113.199 126.964 114.85C127.106 114.927 127.217 115.052 127.276 115.203C127.328 115.432 127.151 115.64 126.974 115.796C126.018 116.7 125.04 117.574 124.032 118.416C122.316 119.851 121.069 119.913 120.299 117.792C120.008 117.033 117.752 111.201 118.48 110.691Z" fill="url(#paint4_linear_34_172)"/>
<path opacity="0.28" d="M283.277 129.239H225.316V167.987H283.277V129.239Z" fill="#68E1FD"/>
<path opacity="0.18" d="M283.277 178.945H154.619V211.726H283.277V178.945Z" fill="#68E1FD"/>
<path d="M118.906 101.438C119.135 100.887 118.303 100.398 117.773 100.669C117.528 100.839 117.322 101.059 117.169 101.316C117.017 101.572 116.921 101.859 116.889 102.155C116.693 103.198 116.383 104.216 115.964 105.191C115.751 105.681 115.435 106.12 115.039 106.478C114.643 106.837 114.175 107.107 113.666 107.271C112.627 107.531 111.514 107.156 110.547 107.458C109.019 107.894 108.281 109.537 107.366 110.847C105.162 113.966 101.128 115.411 97.3436 115.39C96.4677 115.405 95.5937 115.304 94.7444 115.089C93.731 114.81 92.7935 114.306 92.0016 113.615C91.2096 112.924 90.5836 112.063 90.1699 111.097C92.069 111.565 94.0571 111.533 95.9401 111.003L96.1272 110.202C101.866 110.098 105.952 103.84 111.66 103.33C111.476 103.037 111.226 102.79 110.93 102.609C110.634 102.429 110.3 102.32 109.955 102.291C112.436 100.085 115.501 98.6408 118.781 98.132C119.165 98.0681 119.558 98.09 119.932 98.196C120.305 98.3021 120.651 98.4897 120.944 98.7454L118.906 101.438Z" fill="url(#paint5_linear_34_172)"/>
</g>
<defs>
<linearGradient id="paint0_linear_34_172" x1="214.088" y1="141.631" x2="215.262" y2="272.775" gradientUnits="userSpaceOnUse">
<stop/>
<stop offset="1" stop-opacity="0"/>
</linearGradient>
<linearGradient id="paint1_linear_34_172" x1="210.345" y1="575.441" x2="212.102" y2="33.9016" gradientUnits="userSpaceOnUse">
<stop/>
<stop offset="1" stop-opacity="0"/>
</linearGradient>
<linearGradient id="paint2_linear_34_172" x1="246.078" y1="231.354" x2="332.474" y2="118.457" gradientUnits="userSpaceOnUse">
<stop/>
<stop offset="1" stop-opacity="0"/>
</linearGradient>
<linearGradient id="paint3_linear_34_172" x1="170.931" y1="191.92" x2="88.9744" y2="120.495" gradientUnits="userSpaceOnUse">
<stop/>
<stop offset="1" stop-opacity="0"/>
</linearGradient>
<linearGradient id="paint4_linear_34_172" x1="98.3729" y1="131.547" x2="124.427" y2="112.23" gradientUnits="userSpaceOnUse">
<stop/>
<stop offset="1" stop-opacity="0"/>
</linearGradient>
<linearGradient id="paint5_linear_34_172" x1="116.276" y1="129.79" x2="104.569" y2="102.706" gradientUnits="userSpaceOnUse">
<stop/>
<stop offset="1" stop-opacity="0"/>
</linearGradient>
<clipPath id="clip0_34_172">
<rect width="400" height="301.478" fill="white"/>
</clipPath>
</defs>
</svg>
